<svg xmlns="http://www.w3.org/2000/svg" viewBox="0 0 1200 660" role="img" aria-labelledby="title description" data-design="illustrated-v2" data-visual="storage-concepts">
<title id="title">Tres maneras de usar los mismos bytes</title>
<desc id="description">Tres maneras de usar los mismos bytes</desc>
<defs><linearGradient id="coral" x2="1" y2="1"><stop stop-color="#fff0eb"/><stop offset="1" stop-color="#f8d8d1"/></linearGradient><linearGradient id="indigo" x2="1" y2="1"><stop stop-color="#f0edff"/><stop offset="1" stop-color="#ded9f6"/></linearGradient><linearGradient id="teal" x2="1" y2="1"><stop stop-color="#e7f7f3"/><stop offset="1" stop-color="#c9e9e3"/></linearGradient><marker id="arrow-muted" viewBox="0 0 10 10" refX="8" refY="5" markerWidth="7" markerHeight="7" orient="auto"><path d="M1 1L8 5L1 9" fill="none" stroke="#536078" stroke-width="1.7" stroke-linecap="round" stroke-linejoin="round"/></marker><marker id="arrow-coral" viewBox="0 0 10 10" refX="8" refY="5" markerWidth="7" markerHeight="7" orient="auto"><path d="M1 1L8 5L1 9" fill="none" stroke="#c74436" stroke-width="1.7" stroke-linecap="round" stroke-linejoin="round"/></marker><marker id="arrow-indigo" viewBox="0 0 10 10" refX="8" refY="5" markerWidth="7" markerHeight="7" orient="auto"><path d="M1 1L8 5L1 9" fill="none" stroke="#4f46b8" stroke-width="1.7" stroke-linecap="round" stroke-linejoin="round"/></marker><marker id="arrow-teal" viewBox="0 0 10 10" refX="8" refY="5" markerWidth="7" markerHeight="7" orient="auto"><path d="M1 1L8 5L1 9" fill="none" stroke="#087f7a" stroke-width="1.7" stroke-linecap="round" stroke-linejoin="round"/></marker><symbol id="archive" viewBox="0 0 24 24" fill="none" stroke="currentColor" stroke-width="1.65" stroke-linecap="round" stroke-linejoin="round"><rect x="3" y="7" width="18" height="14" rx="2"/><path d="M2 3h20v4H2zM9 12h6"/></symbol><symbol id="image" viewBox="0 0 24 24" fill="none" stroke="currentColor" stroke-width="1.65" stroke-linecap="round" stroke-linejoin="round"><rect x="2" y="3" width="20" height="18" rx="2"/><circle cx="8" cy="8" r="2"/><path d="m3 18 6-6 4 4 4-5 5 7"/></symbol><symbol id="doc" viewBox="0 0 24 24" fill="none" stroke="currentColor" stroke-width="1.65" stroke-linecap="round" stroke-linejoin="round"><path d="M14 2H5a2 2 0 0 0-2 2v16a2 2 0 0 0 2 2h14a2 2 0 0 0 2-2V9Z"/><path d="M14 2v7h7M7 13h10M7 17h7"/></symbol><symbol id="server" viewBox="0 0 24 24" fill="none" stroke="currentColor" stroke-width="1.65" stroke-linecap="round" stroke-linejoin="round"><rect x="3" y="2" width="18" height="8" rx="2"/><rect x="3" y="14" width="18" height="8" rx="2"/><path d="M6 6h.1M6 18h.1M11 6h6M11 18h6"/></symbol></defs>
<rect width="1200" height="660" fill="#f7f8fc"/>
<g font-family="Segoe UI, Arial, sans-serif"><text x="56" y="68" font-size="34" fill="#17243b" font-weight="700" text-anchor="start">Tres maneras de usar los mismos bytes</text><text x="56" y="107" font-size="22" fill="#536078" font-weight="400" text-anchor="start">Objetos, bloques y archivos no son intercambiables.</text><rect x="58" y="170" width="331" height="375" rx="18" fill="url(#indigo)" stroke="#4f46b8" stroke-width="1.5"/><text x="223.5" y="205" font-size="25" fill="#4f46b8" font-weight="700" text-anchor="middle">Objetos</text><rect x="435" y="170" width="331" height="375" rx="18" fill="url(#coral)" stroke="#c74436" stroke-width="1.5"/><text x="600.5" y="205" font-size="25" fill="#c74436" font-weight="700" text-anchor="middle">Bloques</text><rect x="812" y="170" width="331" height="375" rx="18" fill="url(#teal)" stroke="#087f7a" stroke-width="1.5"/><text x="977.5" y="205" font-size="25" fill="#087f7a" font-weight="700" text-anchor="middle">Archivos</text><g data-layout="icon-label"><g data-artwork="true"><use data-icon="archive" href="#archive" x="188" y="260" width="70" height="70" color="#4f46b8"/><use data-icon="image" href="#image" x="145" y="366" width="42" height="42" color="#4f46b8"/><use data-icon="doc" href="#doc" x="253" y="366" width="42" height="42" color="#4f46b8"/></g><text x="223" y="450" font-size="25" fill="#17243b" font-weight="400" text-anchor="middle">API y nombres</text></g><g data-layout="icon-label"><g data-artwork="true"><use data-icon="server" href="#server" x="568" y="246" width="64" height="64" color="#c74436"/><path d="M600 319V345" fill="none" stroke="#c74436" stroke-width="2.5" stroke-linecap="round" stroke-linejoin="round" marker-end="url(#arrow-coral)"/><g data-visual="matrix"><rect x="543" y="361" width="27" height="27" rx="3" fill="#c74436" stroke="none" stroke-width="1.5"/><rect x="573" y="361" width="27" height="27" rx="3" fill="#c74436" stroke="none" stroke-width="1.5"/><rect x="603" y="361" width="27" height="27" rx="3" fill="#c74436" stroke="none" stroke-width="1.5"/><rect x="633" y="361" width="27" height="27" rx="3" fill="#c74436" stroke="none" stroke-width="1.5"/><rect x="543" y="391" width="27" height="27" rx="3" fill="#c74436" stroke="none" stroke-width="1.5"/><rect x="573" y="391" width="27" height="27" rx="3" fill="#c74436" stroke="none" stroke-width="1.5"/><rect x="603" y="391" width="27" height="27" rx="3" fill="#c74436" stroke="none" stroke-width="1.5"/><rect x="633" y="391" width="27" height="27" rx="3" fill="#c74436" stroke="none" stroke-width="1.5"/></g></g><text x="600" y="465" font-size="24" fill="#17243b" font-weight="400" text-anchor="middle">Disco de la instancia</text></g><g data-layout="icon-label"><g data-artwork="true"><use data-icon="server" href="#server" x="892" y="245" width="44" height="44" color="#087f7a"/><use data-icon="server" href="#server" x="954" y="245" width="44" height="44" color="#087f7a"/><use data-icon="server" href="#server" x="1016" y="245" width="44" height="44" color="#087f7a"/><path d="M914 303L914 344" fill="none" stroke="#536078" stroke-width="2.5"/><path d="M976 303L976 373" fill="none" stroke="#536078" stroke-width="2.5"/><path d="M1038 303L1038 344" fill="none" stroke="#536078" stroke-width="2.5"/><path d="M914 344L1038 344" fill="none" stroke="#536078" stroke-width="2.5"/><use data-icon="doc" href="#doc" x="941" y="376" width="70" height="70" color="#087f7a"/></g><text x="976" y="483" font-size="23" fill="#17243b" font-weight="400" text-anchor="middle">Carpeta NFS compartida</text></g><rect x="56" y="576" width="1088" height="52" rx="22" fill="#e4f2ef" stroke="none" stroke-width="1.5"/><text x="600" y="610" font-size="24" fill="#076762" font-weight="600" text-anchor="middle">La interfaz de acceso determina qué servicio encaja.</text></g>
</svg>
